<svg width="12" height="24" viewBox="0 0 12 24" fill="none" xmlns="http://www.w3.org/2000/svg">
<path d="M7.31873 7.7961C8.62207 7.7961 9.8252 7.7961 11.1285 7.7961C10.928 9.1954 10.8277 10.6946 10.7275 11.994C9.62466 11.994 8.52185 11.994 7.41903 11.994C7.41903 15.992 7.41903 19.99 7.41903 23.988C5.71466 23.988 4.11055 23.988 2.40619 23.988C2.40619 19.99 2.40619 15.992 2.40619 11.994C1.60413 11.994 0.902311 11.994 0 11.994C0 10.4947 0 9.09545 0 7.7961C0.802054 7.7961 1.50388 7.7961 2.40619 7.7961C2.40619 7.5962 2.40619 7.5962 2.40619 7.49625C2.40619 6.49675 2.40616 5.49725 2.50642 4.49775C2.60668 2.89855 3.20823 1.59921 4.71208 0.699662C5.41388 0.299862 6.11565 0 6.81745 0C8.3213 0 9.72495 0 11.1285 0C11.1285 1.3993 11.1285 2.69866 11.1285 4.09795C11.0283 4.09795 10.928 4.09795 10.928 4.09795C10.126 4.09795 9.42414 4.09795 8.52183 4.09795C7.82003 4.09795 7.41903 4.3978 7.41903 5.09745C7.21851 5.997 7.31873 6.7966 7.31873 7.7961Z" fill="#3a3a3a"/>
</svg>
