<svg width="42" height="42" viewBox="0 0 42 42" fill="none" xmlns="http://www.w3.org/2000/svg">
<path d="M21 0.21875C9.5375 0.21875 0.21875 9.5375 0.21875 21C0.21875 32.4625 9.5375 41.7813 21 41.7813C32.4625 41.7813 41.7812 32.4625 41.7812 21C41.7812 9.5375 32.4625 0.21875 21 0.21875ZM21 37.975C11.6375 37.975 4.025 30.3625 4.025 21C4.025 11.6375 11.6375 4.025 21 4.025C30.3625 4.025 37.975 11.6375 37.975 21C37.975 30.3625 30.3625 37.975 21 37.975Z" fill="#28A5EB"/>
<path d="M25.5499 16.1438C26.9272 16.1438 28.0436 15.0273 28.0436 13.65C28.0436 12.2727 26.9272 11.1562 25.5499 11.1562C24.1726 11.1562 23.0562 12.2727 23.0562 13.65C23.0562 15.0273 24.1726 16.1438 25.5499 16.1438Z" fill="#28A5EB"/>
<path d="M27.7809 20.0377C27.2122 19.2502 26.0309 19.2502 25.4622 20.0377L24.4997 21.3502C24.3247 21.6127 23.8872 21.6127 23.7122 21.3502L19.5997 15.6189C19.0309 14.8314 17.8497 14.8314 17.2809 15.6189L10.2809 25.5064C9.6247 26.4252 10.2809 27.7377 11.4184 27.7377H30.5372C31.6747 27.7377 32.3747 26.4252 31.6747 25.5064L27.7809 20.0377Z" fill="#28A5EB"/>
</svg>
