<svg width="25" height="24" viewBox="0 0 25 24" fill="none" xmlns="http://www.w3.org/2000/svg">
<path d="M0.531873 7.09627C0.63213 6.49657 0.732399 5.99681 0.732399 5.49706C1.33394 2.39862 3.53955 0.29968 6.64752 0.19973C10.4573 -0.000170283 14.2671 -0.000170283 17.9766 0.19973C21.3853 0.39963 23.8917 2.89838 23.992 6.19673C24.0923 9.79492 24.0923 13.4931 23.992 16.9913C23.8917 20.3896 21.3853 22.9883 17.9766 22.9883C14.1668 23.1882 10.357 23.1882 6.64752 22.9883C3.23878 22.7884 0.832619 20.2897 0.632105 16.8914C0.632105 16.5915 0.531898 16.2917 0.431641 15.9918C0.531898 13.0933 0.531873 10.0948 0.531873 7.09627ZM17.5755 20.9893C20.2825 20.7894 21.8866 19.2902 21.9869 16.5915C22.0871 13.1932 22.0871 9.79492 21.9869 6.39662C21.8866 3.69797 20.2825 2.09877 17.5755 1.99882C14.1668 1.89887 10.6578 1.89887 7.1488 1.99882C4.44187 2.09877 2.83779 3.69797 2.73754 6.39662C2.63728 9.79492 2.63728 13.1932 2.73754 16.5915C2.83779 19.2902 4.44187 20.7894 7.1488 20.9893C8.85317 21.0893 16.974 21.0893 17.5755 20.9893Z" fill="#3a3a3a"/>
<path d="M12.262 17.5907C8.95352 17.5907 6.24658 14.892 6.24658 11.5937C6.24658 8.29533 9.05375 5.59668 12.3622 5.59668C15.6707 5.59668 18.3776 8.29533 18.3776 11.5937C18.4779 14.892 15.6707 17.5907 12.262 17.5907ZM16.2723 11.5937C16.2723 9.39478 14.5679 7.69563 12.3622 7.69563C10.1566 7.69563 8.45221 9.39477 8.35195 11.4937C8.35195 13.6926 10.0563 15.3918 12.262 15.3918C14.4676 15.4917 16.2723 13.7926 16.2723 11.5937Z" fill="#3a3a3a"/>
<path d="M20.0821 5.29675C20.0821 5.9964 19.4805 6.69606 18.6785 6.69606C17.9767 6.69606 17.2749 6.09635 17.2749 5.29675C17.2749 4.49715 17.8764 3.89746 18.6785 3.89746C19.3803 3.89746 20.0821 4.5971 20.0821 5.29675Z" fill="#3a3a3a"/>
</svg>
