<svg width="527" height="363" fill="none"
    xmlns="http://www.w3.org/2000/svg">
    <g clip-path="url(#clip0)">
        <path d="M100.945 329.895h73.816c-.373-13.769-10.687-16.493-28.268-16.493h-17.281c-17.58 0-27.894 2.724-28.267 16.493z" fill="#E6E6E6"/>
        <path d="M122.971 320.103s9.999-108.863 0-126.082c0 0 42.218 67.207 18.332 129.414l-18.332-3.332z" fill="#E6E6E6"/>
        <path d="M131.139 319.547s32.074-57.057 30.811-68.914c0 0 6.678 47.059-21.595 75.219l-9.216-6.305zM496.432 311.048h17.281c9.039 0 17.115.64 22.445 4.064a29.058 29.058 0 0125.47-15.059h17.281a29.053 29.053 0 0120.551 8.511 29.046 29.046 0 018.513 20.548H467.369c0-16.049 13.012-18.064 29.063-18.064z" fill="#E6E6E6"/>
        <path d="M95.885 327.613h527.363v2.283H95.885v-2.283z" fill="#3F3D56"/>
        <path d="M583.58 313.796s-14.139-153.934 0-178.28c0 0-59.698 95.03-25.921 182.992l25.921-4.712z" fill="#E6E6E6"/>
        <path d="M572.029 313.01s-45.354-80.68-43.567-97.446c0 0-9.443 66.543 30.535 106.361l13.032-8.915z" fill="#E6E6E6"/>
    </g>
    <g clip-path="url(#clip1)">
        <path d="M554.003 342.523c-.594-2.153-1.187-4.335-2.375-6.208a21.55 21.55 0 00-3.894-4.264c-4.303-3.919-9.592-7.897-15.297-6.904a20.15 20.15 0 00-5.081 1.855c-.831.387-1.668.773-2.523 1.1a12.56 12.56 0 01-7.616.666c-1.306-.35-2.523-.981-3.811-1.373a12.27 12.27 0 00-1.876-.405 34.431 34.431 0 003.621-1.909c6.405-3.966 11.516-11.102 10.798-18.654-.238-2.557-1.116-5.001-1.983-7.41l-2.285-6.321c-.986-2.741-2.001-5.53-3.805-7.808-2.007-2.533-4.856-4.252-7.801-5.536-6.328-2.753-13.243-3.723-20.07-4.662l-.475-.066v-73.881a4.766 4.766 0 00-2.924-4.422 4.74 4.74 0 00-1.824-.365H475.8l-1.187-7.272c-1.134-6.904-2.303-13.945-5.479-20.165-2.078-4.074-5.39-7.951-9.848-8.754a9.796 9.796 0 01-2.565-.595c-1.306-.642-2.018-2.069-3.027-3.127-2.588-2.718-6.797-2.76-10.27-4.163-3.063-1.219-5.568-3.521-8.358-5.287-2.79-1.766-6.262-3.026-9.355-1.873 0 .226-.042.446-.065.672l-1.983-.892c-2.137-.987-4.322-2.01-6.037-3.639-2.208-2.087-3.384-4.841-4.298-7.778-.095-.31-.184-.595-.273-.922a27.683 27.683 0 007.385-14.135c.16.517.326 1.04.486 1.564a8.24 8.24 0 00.594 1.54c.082.163.176.319.279.47.196.292.441.547.724.755.281.205.611.334.956.375.165.023.333.023.499 0a2.747 2.747 0 001.994-1.707c.095-.234.164-.477.208-.726.023-.149.037-.3.041-.452v-.142-.31-.166V118.775c0-.119-.035-.238-.059-.351-.024-.113 0-.065 0-.095-.03-.155-.065-.303-.095-.458a.568.568 0 010-.101l-.089-.375-.053-.226v-.059c-.06-.232-.113-.47-.167-.708a20.532 20.532 0 01-.326-6.285c.358-3.08.925-6.132 1.698-9.134l.124-.541.143-.63c.095-.429.184-.857.273-1.285a35.057 35.057 0 00.374-2.076v-.119c.363-2.216.46-4.468.291-6.707-.279-3.11-1.241-6.054-3.354-8.403-1.49-1.66-3.449-2.884-4.832-4.626-1.3-1.636-2.03-3.646-3.372-5.245-3.71-4.437-13.226-7.856-19.067-8.45-6.69-.679-17.5 1.034-22.89 4.995-1.994 1.463-3.359 3.568-4.749 5.572-2.552 3.722-5.455 7.433-9.545 9.514-1.549.785-3.318 1.38-4.345 2.748a7.485 7.485 0 00-1.187 3.086 60.873 60.873 0 00-1.223 11.774c-.089 1.73.132 3.462.653 5.114.083.226.184.458.291.678.095.196.201.393.314.595l.072.125a24.695 24.695 0 011.905 3.241c.131.317.226.648.285.987a7.328 7.328 0 01-.166 2.61c0 .131-.048.256-.077.381l-.054.274c0 .083 0 .172-.047.255-.048.258-.089.514-.125.767 0 .179-.036.363-.042.547a4.474 4.474 0 00.41 2.141c.078.16.172.311.279.452.213.285.487.519.801.684a8.987 8.987 0 002.197.523c2.22.5 3.609 2.201 4.511 4.288.2.468.377.947.529 1.433.37 1.22.648 2.467.831 3.729 1.009-.054 1.596-.946 1.953-1.921.111-.322.204-.649.279-.981.136-.625.273-1.249.415-1.874a27.626 27.626 0 0010.84 11.965c.166.488.326.981.474 1.481.778 2.694 1.152 5.518-.195 7.873-.962 1.671-2.583 2.706-4.387 3.419a2.908 2.908 0 00-.98-.838c-1.567-.785-3.443.172-4.749 1.344-2.374 2.153-4.309 5.239-7.438 5.946-1.127.262-2.374.209-3.318.898a7.69 7.69 0 00-1.537 2.028 7.071 7.071 0 01-6.079 3.033c-1.086-.054-2.374-.303-3.117.494-.552.594-.593 1.54-1.187 2.105-.801.785-2.101.398-3.217.351a5.928 5.928 0 00-4.304 1.867c-.07-2.4-.987-4.696-2.588-6.482-1.603-1.653-3.829-2.504-5.728-3.8-4.749-3.235-7.124-8.92-9.599-14.129-2.475-5.209-5.74-10.704-11.142-12.601-1.241-.44-2.968-.476-3.526.731a2.636 2.636 0 00-.089 1.576c.522 2.771 2.493 4.995 4.197 7.225 2.867 3.759 5.271 8.355 4.576 13.053-.813 5.56-5.758 9.878-6.351 15.461-.262 2.462.362 4.936.356 7.41 0 1.546-.244 3.11.089 4.615a31.36 31.36 0 001.252 3.359 19.74 19.74 0 01.82 5.537c.419 7.881.837 15.764 1.252 23.649.315 5.882-.968 11.686-2.262 17.472a54.952 54.952 0 00-3.716 10.704c-1.46 6.44-1.502 13.302.594 19.57 1.122 3.407 2.843 6.601 3.763 10.068 0 .077.036.148.054.22.089.737.19 1.474.326 2.206.169.845.389 1.679.659 2.497.27 1.41.708 2.782 1.306 4.086a11.425 11.425 0 003.562 4.162c-.855 1.677-2.238 3.027-3.158 4.669-1.603 2.842-1.668 6.333-1.086 9.556 1.122 6.22 4.475 11.78 8.904 16.299a5.35 5.35 0 00-.594 0 9.311 9.311 0 00-4.06 1.457c-9.373 5.489-14.734 17.246-12.775 28.009.386 2.105 1.057 4.234 2.458 5.834a9.236 9.236 0 004.327 2.658c1.038.313 2.107.512 3.188.595 7.307.594 14.383-2.801 21.709-3.087a58.473 58.473 0 017.271.339c3.526.294 7.06.48 10.602.559 5.752.137 8.993-1.397 12.668-5.709a15.394 15.394 0 002.238-3.532c3.122-.178 6.571-.452 9.07-.66l.036.351c.136 1.189.344 2.557 1.294 3.312a4.633 4.633 0 001.781.726c6.001 1.48 12.074 2.973 18.248 2.973a76.852 76.852 0 008.666-.672l10.864-1.255a55.253 55.253 0 019.325 2.034c3.134 1.07 6.067 2.658 9.13 3.907 7.123 2.896 14.793 3.931 22.385 4.942 1.294.172 2.778.291 3.74-.595 1.235-1.189.819-3.182.475-4.847a26.24 26.24 0 01-.339-2.057 102.844 102.844 0 0114.995 5.215l.855.375c.243 1.296 1.442 2.337 2.588 3.734a9.445 9.445 0 001.312 1.624c.565.373 1.21.607 1.882.683a87.764 87.764 0 0024.338 1.101 24.817 24.817 0 015.016-.173c1.229.167 2.44.441 3.621.821l6.874 1.968c5.064 1.457 10.258 2.926 15.511 2.599a20.54 20.54 0 003.17-.458c4.155-.963 8.032-3.295 10.026-7.041 2.678-5.096 1.378-11.358-.148-16.924zm-201.627-93.011a21.669 21.669 0 01-1.983 7.439c-.736 1.493-1.686 2.866-2.374 4.365-.653 1.356-1.14 3.919-1.431 6.731a22.026 22.026 0 00-1.074-.154c.528-1.856.926-3.759 1.454-5.62 1.253-4.424 3.312-8.605 5.408-12.761z" fill="url(#paint0_linear)"/>
        <path d="M361.523 336.971c-1.253-2.854-2.44-6.137-1.188-8.991a7.633 7.633 0 013.948-3.717 18.982 18.982 0 015.342-1.32 74.43 74.43 0 0117.37-.238c.421 3.342-.469 6.732-1.235 9.961-.695 2.973-1.092 3.413-4.155 3.568-1.983.107-19.613 1.79-20.082.737z" fill="#FBBEBE"/>
        <path d="M414.385 317.716c46.882 0 84.887-10.65 84.887-23.787 0-13.137-38.005-23.786-84.887-23.786s-84.887 10.649-84.887 23.786c0 13.137 38.005 23.787 84.887 23.787z" fill="#464353"/>
        <path opacity=".1" d="M414.385 317.716c46.882 0 84.887-10.65 84.887-23.787 0-13.137-38.005-23.786-84.887-23.786s-84.887 10.649-84.887 23.786c0 13.137 38.005 23.787 84.887 23.787z" fill="#000"/>
        <path d="M429.605 168.361a26.424 26.424 0 01-13.617 12.393 34.107 34.107 0 01-10.78 2.057c-4.031.185-8.145-.077-11.932-1.457-5.081-1.843-9.302-5.613-12.466-10.008-3.164-4.394-5.342-9.413-7.236-14.474-.997-2.634-1.947-5.441-1.478-8.224 3.057-.696 6.405-1.719 7.984-4.436 1.348-2.331.974-5.126.196-7.79a41.065 41.065 0 00-.73-2.224c-.594-1.725-2.642-5.001-1.217-6.476.908-.934 4.713-1.41 6.025-2.016 4.043-1.867 7.771-4.567 12.211-5.453 3.841-.767 7.806-.048 11.641.749.508.074.997.25 1.436.517.501.423.872.98 1.069 1.606 1.092 2.664 1.733 5.608 2.612 8.385.914 2.908 2.089 5.637 4.291 7.701 1.716 1.611 3.9 2.622 6.037 3.603l5.26 2.415c.935.351 1.784.9 2.487 1.611a6.31 6.31 0 011.187 3.235 30.262 30.262 0 01-2.98 18.286z" fill="#FBBEBE"/>
        <path opacity=".1" d="M413.298 131.51a27.286 27.286 0 01-15.675 8.1 27.265 27.265 0 01-17.348-3.188 39.12 39.12 0 00-.73-2.224c-.593-1.725-2.641-5.001-1.217-6.476.909-.934 4.714-1.41 6.026-2.016 4.042-1.867 7.77-4.567 12.21-5.453 3.841-.767 7.806-.048 11.641.749.509.074.997.25 1.437.517.5.423.871.98 1.068 1.606 1.069 2.664 1.71 5.608 2.588 8.385z" fill="#000"/>
        <path d="M393.607 138.723c15.081 0 27.306-12.247 27.306-27.355 0-15.107-12.225-27.354-27.306-27.354-15.081 0-27.306 12.247-27.306 27.354 0 15.108 12.225 27.355 27.306 27.355z" fill="#FBBEBE"/>
        <path d="M476.804 200.146l-2.244-13.618c-1.133-6.833-2.303-13.796-5.473-19.951-2.083-4.032-5.39-7.873-9.848-8.67a9.5 9.5 0 01-2.564-.595c-1.306-.63-2.019-2.045-3.022-3.092-2.588-2.688-6.803-2.729-10.269-4.097-3.063-1.19-5.568-3.479-8.358-5.227-2.79-1.749-6.263-2.974-9.35-1.856-.498 5.323-1.027 10.764-3.282 15.61a23.36 23.36 0 01-6.304 8.156 23.294 23.294 0 01-19.489 4.863 23.317 23.317 0 01-9.385-4.241c-5.289-3.991-8.679-10.145-10.258-16.586-.386-1.57-.825-3.371-2.267-4.091-1.562-.785-3.437.167-4.749 1.32-2.404 2.135-4.316 5.192-7.438 5.911-1.128.262-2.375.208-3.313.892a7.55 7.55 0 00-1.543 2.004 7.124 7.124 0 01-6.073 3.009c-1.086-.053-2.374-.303-3.116.488-.552.594-.594 1.522-1.187 2.075-.802.779-2.102.399-3.218.357-2.113-.089-4.078 1.267-5.289 2.973-1.211 1.707-1.781 3.818-2.374 5.864 6.488 14.474 12.424 28.966 18.912 43.44.304.545.465 1.159.469 1.784a4.356 4.356 0 01-.807 1.784c-3.182 5.12-3.081 11.56-2.731 17.578.35 6.018.778 12.375-1.905 17.769-.73 1.48-1.68 2.836-2.375 4.317-1.626 3.354-2.214 14.081-1.264 17.685h134.157c-2.559-7.047-1.585-21.188-1.051-28.669.374-5.233-.594-10.46-1.009-15.693-.873-10.686-.22-20.825-1.983-31.493z" fill="#EC7753"/>
        <path d="M483.671 271.838c1.977-.755 4.155-.481 6.275-.196 6.82.934 13.742 1.891 20.064 4.621 2.968 1.272 5.793 2.973 7.8 5.477 1.781 2.253 2.819 5.013 3.805 7.73l2.279 6.238c.867 2.379 1.746 4.805 1.989 7.332.712 7.487-4.399 14.546-10.828 18.435-6.428 3.889-13.997 5.275-21.37 6.726a681.107 681.107 0 00-22.118 4.757c-3.425.89-6.9 1.575-10.406 2.052-7.859.892-16.075-.423-23.543 2.182-2.968 1.041-5.882 2.587-8.963 3.306a55.627 55.627 0 01-6.192.999l-14.133 1.618a77.113 77.113 0 01-8.667.666c-6.174 0-12.247-1.463-18.242-2.926a4.617 4.617 0 01-1.781-.719c-.95-.75-1.157-2.076-1.294-3.277a570.484 570.484 0 01-1.591-15.967c-.142-1.73-.249-3.603.695-5.06 1.187-1.784 3.502-2.343 5.615-2.688a146.22 146.22 0 0127.117-1.885c3.448-3.455 9.135-3.473 13.653-5.352a40.605 40.605 0 004.814-2.623 62.853 62.853 0 0126.422-8.367 24.526 24.526 0 005.408-.773c3.496-1.088 6.684-4.049 10.275-3.324.445-1.231.754-2.878 1.781-3.722.51-.435 1.14-.726 1.609-1.19.991-1.005 1.08-2.587.932-3.99-.149-1.403-.481-2.842-.119-4.21a5.79 5.79 0 01.659-1.469c1.786-3.128 4.476-4.698 8.055-4.401z" fill="#464353"/>
        <path opacity=".05" d="M483.671 271.838c1.977-.755 4.155-.481 6.275-.196 6.82.934 13.742 1.891 20.064 4.621 2.968 1.272 5.793 2.973 7.8 5.477 1.781 2.253 2.819 5.013 3.805 7.73l2.279 6.238c.867 2.379 1.746 4.805 1.989 7.332.712 7.487-4.399 14.546-10.828 18.435-6.428 3.889-13.997 5.275-21.37 6.726a681.107 681.107 0 00-22.118 4.757c-3.425.89-6.9 1.575-10.406 2.052-7.859.892-16.075-.423-23.543 2.182-2.968 1.041-5.882 2.587-8.963 3.306a55.627 55.627 0 01-6.192.999l-14.133 1.618a77.113 77.113 0 01-8.667.666c-6.174 0-12.247-1.463-18.242-2.926a4.617 4.617 0 01-1.781-.719c-.95-.75-1.157-2.076-1.294-3.277a570.484 570.484 0 01-1.591-15.967c-.142-1.73-.249-3.603.695-5.06 1.187-1.784 3.502-2.343 5.615-2.688a146.22 146.22 0 0127.117-1.885c3.448-3.455 9.135-3.473 13.653-5.352a40.605 40.605 0 004.814-2.623 62.853 62.853 0 0126.422-8.367 24.526 24.526 0 005.408-.773c3.496-1.088 6.684-4.049 10.275-3.324.445-1.231.754-2.878 1.781-3.722.51-.435 1.14-.726 1.609-1.19.991-1.005 1.08-2.587.932-3.99-.149-1.403-.481-2.842-.119-4.21a5.79 5.79 0 01.659-1.469c1.786-3.128 4.476-4.698 8.055-4.401z" fill="#000"/>
        <path d="M366.985 340.646c-3.674 4.264-6.91 5.787-12.662 5.65a185.894 185.894 0 01-10.602-.553 59.158 59.158 0 00-7.265-.339c-7.326.285-14.396 3.645-21.703 3.056a15.358 15.358 0 01-3.188-.594 9.275 9.275 0 01-4.303-2.623c-1.401-1.588-2.072-3.693-2.458-5.774-1.953-10.668 3.401-22.288 12.775-27.717a9.358 9.358 0 014.06-1.445 9.607 9.607 0 014.108.904l.089.035a31.062 31.062 0 0110.174 6.803c.441.506.968.931 1.556 1.255a5.321 5.321 0 001.834.345l7.8.493c1.321.04 2.635.221 3.918.542a30.891 30.891 0 014.119 1.784c4.197 1.879 8.851 2.378 13.386 3.104.438.024.855.191 1.188.475.181.226.307.491.368.774a15.193 15.193 0 01-3.194 13.825z" fill="#3F3D56"/>
        <path opacity=".1" d="M325.812 311.246a46.895 46.895 0 00-7.806 9.777 48.987 48.987 0 00-6.375 19.35 36.009 36.009 0 00-.066 7.499 9.281 9.281 0 01-4.303-2.629c-1.401-1.588-2.072-3.693-2.458-5.774-1.953-10.668 3.401-22.288 12.775-27.717a9.358 9.358 0 014.06-1.445 9.607 9.607 0 014.108.904l.065.035z" fill="#000"/>
        <path d="M476.88 326.036c4.363-.119 9.261-.339 12.466 2.605 3.057 2.783 3.461 7.374 3.663 11.507l.231 4.799c.071 1.462.131 2.973-.457 4.329-1.045 2.378-3.912 3.526-6.53 3.389-2.617-.136-5.022-1.284-7.414-2.319a104.16 104.16 0 00-20.183-6.369c.226-3.318.602-6.62 1.128-9.907.362-2.277.422-6.089 1.941-7.98 1.609-1.998 3.704-.916 5.889-.547 3.065.468 6.169.634 9.266.493z" fill="#FBBEBE"/>
        <path d="M361.588 277.821c0 .594-.932 0-1.015-.637-.653-4.81-4.464-8.777-8.904-10.703-4.44-1.927-9.498-2.028-14.306-1.57-7.272.689-15.405 3.478-18.094 10.287-.629 1.594-.914 3.318-1.686 4.847-.854 1.677-2.249 3.015-3.175 4.644-1.597 2.819-1.662 6.274-1.087 9.461 1.55 8.504 7.355 15.777 14.39 20.813 7.034 5.037 15.255 8.046 23.453 10.758a406.1 406.1 0 0066.485 15.907c3.657.553 7.349 1.065 10.851 2.242 3.135 1.053 6.067 2.628 9.13 3.865 7.124 2.867 14.787 3.889 22.379 4.894 1.295.167 2.779.286 3.734-.594 1.235-1.148.825-3.146.475-4.793a25.818 25.818 0 013.022-18.28c1.27-2.141 2.92-4.335 2.683-6.815-.285-2.89-3.158-4.936-6.019-5.4-2.862-.463-5.77.22-8.643.595-.992.131-2.072.214-2.969-.291a5.868 5.868 0 01-1.151-1.023 13.006 13.006 0 00-15.161-2.123c-1.063.595-2.671-.732-3.776-1.231l-12.471-5.667c-14.342-6.5-28.755-13.029-43.928-17.144a9.221 9.221 0 01-3.383-1.41c-.754-.594-1.295-1.403-1.989-2.063-1.514-1.433-3.621-2.004-5.438-3.021-1.816-1.017-3.834-3.509-3.407-5.548z" fill="#464353"/>
        <path d="M554.031 355.537c-1.994 3.704-5.864 6.012-10.02 6.963a19.825 19.825 0 01-3.17.452c-5.253.327-10.441-1.13-15.505-2.569l-6.874-1.95a21.68 21.68 0 00-3.621-.809 24.83 24.83 0 00-5.01.172 88.617 88.617 0 01-24.338-1.094 4.28 4.28 0 01-1.882-.672 9.316 9.316 0 01-1.312-1.611c-1.87-2.254-3.882-3.568-1.668-6.542 1.276-1.724 3.645-2.586 4.636-4.567.992-1.98.356-4.793-.231-6.838-.802-2.825-3.437-4.044-4.381-6.637-.707-1.956.481-4.228 2.267-5.292 1.787-1.065 3.995-1.148 6.055-.874 2.06.273 4.078.856 6.15 1.017 6.091.487 12.318-2.659 18.165-.886 1.288.392 2.505 1.016 3.811 1.361a12.65 12.65 0 007.616-.66c.855-.321 1.692-.707 2.523-1.088a20.287 20.287 0 015.075-1.838c5.705-.981 10.994 2.974 15.298 6.833a21.678 21.678 0 013.888 4.222c1.187 1.856 1.816 4.014 2.374 6.143 1.573 5.513 2.873 11.709.154 16.764z" fill="#3F3D56"/>
        <path opacity=".1" d="M554.032 355.537c-1.995 3.705-5.865 6.012-10.021 6.964a19.472 19.472 0 002.108-10.205c-.356-5.655-2.838-10.983-6.002-15.681a55.51 55.51 0 00-6.612-8.07c-1.888-1.903-4.209-3.413-6.239-5.155a20.287 20.287 0 015.075-1.838c5.705-.981 10.994 2.973 15.297 6.833a21.652 21.652 0 013.889 4.222c1.187 1.855 1.816 4.014 2.374 6.143 1.549 5.536 2.849 11.732.131 16.787z" fill="#000"/>
        <path d="M374.743 66.97c-1.995 1.445-3.36 3.52-4.749 5.513-2.559 3.68-5.456 7.356-9.546 9.407-1.549.78-3.318 1.368-4.345 2.724a7.347 7.347 0 00-1.157 3.05 60.448 60.448 0 00-1.223 11.656c0 1.95.083 3.96.943 5.732.814 1.665 2.28 3.075 2.583 4.888.231 1.416-.291 2.825-.475 4.246-.184 1.422.136 3.105 1.448 3.782a8.735 8.735 0 002.197.518c3.947.88 5.271 5.518 5.87 9.354 1.342-.077 1.948-1.618 2.227-2.872l4.113-18.322c.445-1.986 1.187-4.287 3.164-4.983 1.324-.458 2.772-.03 4.156.089 5.431.446 10.026-3.758 15.339-4.918 1.7-.342 3.439-.456 5.17-.339 4.191.208 9.064 1.933 9.955 5.852.148.636.237 1.397.831 1.712.593.315 1.187.048 1.84 0 2.659-.267 4.227 2.73 4.992 5.18l2.79 8.92c.416 1.35 1.116 2.937 2.577 3.11 1.347.166 2.493-1.112 2.695-2.379.202-1.266-.238-2.581-.529-3.853-1.312-5.858.695-11.852 1.918-17.721 1.223-5.87 1.442-12.613-2.66-17.133-1.49-1.635-3.449-2.854-4.838-4.578-1.294-1.618-2.024-3.604-3.365-5.192-3.711-4.382-13.226-7.766-19.061-8.325-6.643-.732-17.47.963-22.86 4.882z" fill="#3F3D56"/>
        <g opacity=".1" fill="#000">
            <path opacity=".1" d="M423.466 117.1c-1.46-.179-2.16-1.784-2.576-3.11-.93-2.978-1.86-5.951-2.79-8.92-.766-2.456-2.333-5.453-4.992-5.18-.594.066-1.294.309-1.84 0-.546-.31-.683-1.076-.831-1.713-.891-3.924-5.764-5.643-9.955-5.851-1.731-.114-3.469 0-5.171.339-5.342 1.19-9.907 5.352-15.339 4.918-1.401-.113-2.849-.541-4.155-.084-2 .69-2.719 2.974-3.164 4.984l-4.114 18.315c-.279 1.261-.884 2.801-2.226 2.873-.593-3.83-1.923-8.468-5.871-9.348a9.324 9.324 0 01-2.196-.518 2.582 2.582 0 01-1.146-1.278c-.107.553-.231 1.106-.302 1.659-.178 1.415.136 3.104 1.448 3.782a8.78 8.78 0 002.196.517c3.948.88 5.272 5.519 5.871 9.354 1.342-.077 1.947-1.617 2.226-2.872l4.114-18.322c.445-1.986 1.187-4.287 3.164-4.983 1.324-.458 2.772-.03 4.155.089 5.432.446 10.026-3.758 15.339-4.918a19.56 19.56 0 015.147-.338c4.191.208 9.064 1.932 9.955 5.851.148.636.237 1.397.831 1.713.594.315 1.187.047 1.84 0 2.66-.268 4.227 2.729 4.992 5.179.926 2.977 1.856 5.951 2.79 8.92.416 1.35 1.116 2.938 2.577 3.11 1.347.167 2.493-1.112 2.695-2.378a8.1 8.1 0 00-.356-3.158 2.455 2.455 0 01-2.316 1.368zM357.255 105.776c-.303-1.813-1.781-3.223-2.583-4.888a9.793 9.793 0 01-.878-3.568c0 .666-.06 1.332-.065 2.004 0 1.951.083 3.961.943 5.733.659 1.35 1.746 2.539 2.292 3.913a8.985 8.985 0 00.291-3.194zM427.551 93.123c-1.081 5.185-2.766 10.466-2.244 15.663.338-3.835 1.454-7.695 2.244-11.5.658-2.889.89-5.858.688-8.813a36.468 36.468 0 01-.688 4.65z"/>
        </g>
        <path d="M359.594 226.43c-.719 11.81-9.368 21.568-12.662 32.926-.819 2.843-1.312 5.792-2.487 8.498-2.375 5.441-7.26 9.39-12.466 12.173a18.74 18.74 0 01-6.138 2.236 11.75 11.75 0 01-6.891-1.301 11.768 11.768 0 01-4.928-4.997c-1.36-2.765-1.55-5.947-2.375-8.92-.92-3.431-2.641-6.595-3.763-9.967-2.066-6.202-2.024-12.993-.594-19.368a59.54 59.54 0 016.37-15.794c.415-.731.837-1.457 1.27-2.176a49.272 49.272 0 014.114-5.947c3.561-4.299 8.138-7.606 12.667-10.865a2.973 2.973 0 011.188-.594h.071a2.859 2.859 0 011.466.345 115.979 115.979 0 0118.016 9.776c2.042 1.362 5.266 2.884 6.334 5.203 1.069 2.319.962 6.25.808 8.772z" fill="#FBBEBE"/>
        <path d="M336.027 172.082a6.167 6.167 0 00-1.318 2.111 99.995 99.995 0 00-8.37 34.265 3.43 3.43 0 01-.386 1.659c-.262.34-.554.657-.872.945a3.294 3.294 0 00-.33 3.765c.225.388.527.726.888.993.979-1.85 3.324-2.45 5.408-2.611 9.978-.791 19.725 3.86 29.734 3.509-.707-2.444-1.722-4.793-2.297-7.267-2.547-10.983 3.805-22.942-.089-33.521-.778-2.117-2.078-4.198-4.126-5.126a10.979 10.979 0 00-2.642-.702c-2.529-.458-7.562-2.414-10.008-1.629-.902.291-1.259 1.142-2.006 1.653-1.111.731-2.618.987-3.586 1.956z" fill="#EC7753"/>
        <path opacity=".1" d="M340.117 270.411a17.529 17.529 0 01-6.292 6.261 17.484 17.484 0 01-8.548 2.367 11.672 11.672 0 01-4.749-.874c-3.793-1.677-5.936-5.827-6.732-9.907-.795-4.079-.546-8.289-1.11-12.41-.451-3.283-1.413-6.47-1.911-9.747-1.223-8.105 1.187-16.109 2.902-24.179.416-.731.837-1.457 1.271-2.176a49.272 49.272 0 014.114-5.947c3.561-4.299 8.138-7.606 12.667-10.865h-4.749a.82.82 0 01.807-.088.814.814 0 01.482.653c.468 4.163 6.327 8.326 7.604 12.369.789 2.486 1.739 4.924 2.374 7.458a59.832 59.832 0 011.14 6.541c.843 6.157 1.682 12.301 2.517 18.434 1.051 7.487 1.953 15.581-1.787 22.11z" fill="#000"/>
        <path d="M332.257 192.332l5.729-18c.855-2.694 1.721-5.429 1.822-8.26.101-2.831-.641-5.798-2.618-7.82-1.602-1.635-3.823-2.479-5.722-3.758-4.749-3.205-7.124-8.819-9.599-13.986-2.475-5.168-5.734-10.574-11.136-12.488-1.247-.44-2.968-.476-3.526.719a2.532 2.532 0 00-.089 1.558c.522 2.747 2.487 4.942 4.197 7.136 2.867 3.717 5.265 8.266 4.576 12.916-.819 5.507-5.758 9.776-6.351 15.313-.261 2.438.362 4.882.356 7.338 0 1.522-.249 3.074.089 4.561a30.63 30.63 0 001.253 3.378c.528 1.778.804 3.621.819 5.476l1.252 23.406c.677 12.661-6.179 24.976-4.292 37.464.499 3.277 1.461 6.464 1.912 9.747.593 4.121.314 8.325 1.11 12.41.795 4.086 2.968 8.23 6.731 9.907 1.505.62 3.123.917 4.749.875a17.493 17.493 0 0014.841-8.629c3.74-6.541 2.837-14.623 1.816-22.08l-2.517-18.434a59.889 59.889 0 00-1.139-6.542c-.63-2.533-1.58-4.971-2.375-7.457-2.547-8.129-4.452-16.674-1.888-24.75z" fill="#FBBEBE"/>
        <path d="M484.745 193.729H361.831a4.734 4.734 0 00-4.731 4.739v74.963a4.735 4.735 0 004.731 4.74h122.914a4.736 4.736 0 004.731-4.74v-74.963a4.735 4.735 0 00-4.731-4.739z" fill="#3F3D56"/>
        <path opacity=".2" d="M484.745 193.729H361.831a4.734 4.734 0 00-4.731 4.739v74.963a4.735 4.735 0 004.731 4.74h122.914a4.736 4.736 0 004.731-4.74v-74.963a4.735 4.735 0 00-4.731-4.739z" fill="#000"/>
        <path d="M422.991 239.519a3.566 3.566 0 003.562-3.568 3.565 3.565 0 00-3.562-3.568 3.564 3.564 0 00-3.561 3.568 3.565 3.565 0 003.561 3.568z" fill="#fff"/>
        <path d="M266.793 305.133h7.189c3.936 0 7.711 1.566 10.494 4.354a14.88 14.88 0 014.346 10.512v22.068h-36.869v-22.068c0-3.942 1.564-7.724 4.347-10.512a14.827 14.827 0 0110.493-4.354z" fill="#3F3D56"/>
        <path opacity=".1" d="M266.793 305.133h7.189c3.936 0 7.711 1.566 10.494 4.354a14.88 14.88 0 014.346 10.512v22.068h-36.869v-22.068c0-3.942 1.564-7.724 4.347-10.512a14.827 14.827 0 0110.493-4.354z" fill="#000"/>
        <path d="M268.919 313.263a2.954 2.954 0 002.95-2.956 2.953 2.953 0 00-2.95-2.955 2.953 2.953 0 00-2.95 2.955 2.954 2.954 0 002.95 2.956z" fill="#3F3D56"/>
        <path d="M268.919 309.569a2.953 2.953 0 002.95-2.955 2.953 2.953 0 00-2.95-2.956 2.953 2.953 0 00-2.95 2.956 2.953 2.953 0 002.95 2.955z" fill="#3F3D56"/>
        <path d="M268.919 305.876a2.953 2.953 0 002.95-2.956 2.953 2.953 0 00-2.95-2.955 2.953 2.953 0 00-2.95 2.955 2.953 2.953 0 002.95 2.956z" fill="#3F3D56"/>
        <path d="M268.919 302.184a2.953 2.953 0 002.95-2.955 2.954 2.954 0 00-2.95-2.956 2.954 2.954 0 00-2.95 2.956 2.953 2.953 0 002.95 2.955z" fill="#3F3D56"/>
        <path d="M268.919 298.491a2.953 2.953 0 002.95-2.955 2.953 2.953 0 00-2.95-2.956 2.953 2.953 0 00-2.95 2.956 2.953 2.953 0 002.95 2.955z" fill="#3F3D56"/>
        <path d="M268.919 294.798a2.954 2.954 0 002.95-2.956 2.953 2.953 0 00-2.95-2.955 2.953 2.953 0 00-2.95 2.955 2.954 2.954 0 002.95 2.956z" fill="#3F3D56"/>
        <path d="M268.919 291.106a2.953 2.953 0 002.95-2.955 2.954 2.954 0 00-2.95-2.956 2.954 2.954 0 00-2.95 2.956 2.953 2.953 0 002.95 2.955z" fill="#3F3D56"/>
        <path d="M273.341 292.579a2.953 2.953 0 002.95-2.956 2.953 2.953 0 00-2.95-2.955 2.953 2.953 0 00-2.95 2.955 2.953 2.953 0 002.95 2.956z" fill="#3F3D56"/>
        <path d="M276.292 291.106a2.953 2.953 0 002.95-2.955 2.954 2.954 0 00-2.95-2.956 2.954 2.954 0 00-2.95 2.956 2.953 2.953 0 002.95 2.955z" fill="#3F3D56"/>
        <path d="M279.241 289.624a2.953 2.953 0 002.951-2.956 2.953 2.953 0 00-2.951-2.955 2.953 2.953 0 00-2.95 2.955 2.953 2.953 0 002.95 2.956zM268.919 287.407a2.953 2.953 0 002.95-2.955 2.953 2.953 0 00-2.95-2.956 2.953 2.953 0 00-2.95 2.956 2.953 2.953 0 002.95 2.955z" fill="#3F3D56"/>
        <path d="M268.919 283.714a2.953 2.953 0 002.95-2.956 2.953 2.953 0 00-2.95-2.955 2.953 2.953 0 00-2.95 2.955 2.953 2.953 0 002.95 2.956z" fill="#3F3D56"/>
        <path d="M268.919 280.02a2.953 2.953 0 002.95-2.955 2.954 2.954 0 00-2.95-2.956 2.954 2.954 0 00-2.95 2.956 2.953 2.953 0 002.95 2.955z" fill="#3F3D56"/>
        <path d="M268.919 276.329a2.953 2.953 0 002.95-2.956 2.953 2.953 0 00-2.95-2.955 2.953 2.953 0 00-2.95 2.955 2.953 2.953 0 002.95 2.956z" fill="#3F3D56"/>
        <path d="M281.142 263.839c-.73.107-1.466.184-2.202.232a16.98 16.98 0 001.899-1.95 12.598 12.598 0 00-1.78-3.467 6.077 6.077 0 01-2.375.749c-.73.107-1.466.19-2.202.238a40.833 40.833 0 002.82-2.974 12.511 12.511 0 00-15.747-.815 12.544 12.544 0 00-4.731 6.91 12.572 12.572 0 00.665 8.352 12.542 12.542 0 005.765 6.07 12.506 12.506 0 008.294 1.082 12.526 12.526 0 007.125-4.389 12.568 12.568 0 002.588-10.062l-.119.024zM291.001 278.523a5.834 5.834 0 01-2.482.832c-.73.107-1.466.185-2.202.232a21.612 21.612 0 002.185-2.272 7.381 7.381 0 00-8.802 4.627 7.405 7.405 0 003.77 9.214c1.66.79 3.555.931 5.314.396a7.39 7.39 0 004.197-3.289 7.413 7.413 0 00.894-5.263 7.397 7.397 0 00-2.874-4.495v.018z" fill="#28A5EB"/>
        <path d="M264.489 292.579a2.953 2.953 0 002.951-2.956 2.953 2.953 0 00-2.951-2.955 2.953 2.953 0 00-2.95 2.955 2.953 2.953 0 002.95 2.956z" fill="#3F3D56"/>
        <path d="M261.54 291.106c1.63 0 2.95-1.323 2.95-2.955a2.953 2.953 0 00-2.95-2.956 2.954 2.954 0 00-2.95 2.956 2.953 2.953 0 002.95 2.955z" fill="#3F3D56"/>
        <path d="M258.591 289.624a2.953 2.953 0 002.95-2.956 2.953 2.953 0 00-2.95-2.955 2.953 2.953 0 00-2.95 2.955 2.953 2.953 0 002.95 2.956z" fill="#3F3D56"/>
        <path d="M246.831 278.523a5.803 5.803 0 002.481.832c.73.107 1.467.185 2.203.232a21.032 21.032 0 01-2.185-2.272 7.378 7.378 0 015.294.608 7.396 7.396 0 013.508 4.019 7.41 7.41 0 01-.106 5.337 7.393 7.393 0 01-3.664 3.877 7.373 7.373 0 01-5.314.396 7.386 7.386 0 01-4.197-3.289 7.403 7.403 0 011.98-9.758v.018z" fill="#28A5EB"/>
        <path d="M266.793 307.352h7.189c3.936 0 7.711 1.566 10.494 4.354a14.879 14.879 0 014.346 10.512v19.547a2.517 2.517 0 01-2.516 2.521H254.47a2.52 2.52 0 01-2.517-2.521v-19.547a14.88 14.88 0 014.347-10.512 14.827 14.827 0 0110.493-4.354z" fill="#3F3D56"/>
        <g opacity=".1" fill="#000">
            <path opacity=".1" d="M281.368 264.65c-.299.32-.616.622-.95.904.338 0 .671-.053 1.009-.089-.012-.273-.03-.547-.059-.815zM275.99 261.118a27.26 27.26 0 002.208-.232 7.134 7.134 0 001.918-.523c-.3-.595-.646-1.165-1.033-1.707a4.463 4.463 0 01-1.187.506 17.095 17.095 0 01-1.906 1.956zM257.855 267.462a12.53 12.53 0 016.513-11.025 12.501 12.501 0 0112.779.464l.19-.202a12.512 12.512 0 00-13.846-1.889 12.542 12.542 0 00-6.348 7.253 12.571 12.571 0 00.666 9.622 12.54 12.54 0 003.014 3.882 12.5 12.5 0 01-2.968-8.105z"/>
        </g>
        <g opacity=".1" fill="#000">
            <path opacity=".1" d="M286.318 281.061a27.592 27.592 0 002.203-.232 5.754 5.754 0 002.481-.832 7.386 7.386 0 012.968 5.233c.029-.259.043-.519.042-.779a7.363 7.363 0 00-2.968-5.947 5.82 5.82 0 01-2.482.832l-.593.072a15.158 15.158 0 01-1.651 1.653zM286.615 278.539c.246.003.492.021.736.054.386-.411.766-.851 1.152-1.279a7.348 7.348 0 00-6.388 1.28 7.376 7.376 0 00-2.873 5.856c0 .25 0 .494.036.738a7.384 7.384 0 012.39-4.74 7.366 7.366 0 014.947-1.909z"/>
        </g>
        <g opacity=".1" fill="#000">
            <path opacity=".1" d="M251.514 281.061a27.592 27.592 0 01-2.203-.232 5.728 5.728 0 01-2.481-.832 7.386 7.386 0 00-2.968 5.233 6.766 6.766 0 01-.042-.779 7.363 7.363 0 012.968-5.947 5.794 5.794 0 002.482.832l.593.072a14.085 14.085 0 001.651 1.653zM251.218 278.539a6.142 6.142 0 00-.742.054c-.38-.411-.76-.851-1.146-1.279a7.347 7.347 0 016.388 1.28 7.376 7.376 0 012.872 5.856c0 .25 0 .494-.035.738a7.388 7.388 0 00-2.39-4.74 7.366 7.366 0 00-4.947-1.909z"/>
        </g>
        <path d="M320.479 0H114.425c-3.936 0-7.126 2.564-7.126 5.727v30.546c0 3.163 3.19 5.727 7.126 5.727h206.054c3.935 0 7.125-2.564 7.125-5.727V5.727c0-3.163-3.19-5.727-7.125-5.727z" fill="#F2F9FD"/>
        <path d="M224 16H98a4 4 0 00-4 4v34a4 4 0 004 4h126a4 4 0 004-4V20a4 4 0 00-4-4z" fill="#0E4E89"/>
        <text fill="#FDFDFD" style="white-space:pre" font-family="Roboto" font-size="33" font-weight="bold" letter-spacing="0em">
            <tspan x="190.187" y="47.779">₸</tspan>
        </text>
        <path d="M306.884 16H101.116C97.186 16 94 18.564 94 21.727v30.546C94 55.436 97.186 58 101.116 58h205.768c3.93 0 7.116-2.564 7.116-5.727V21.727c0-3.163-3.186-5.727-7.116-5.727z" stroke="#3F3D56" stroke-width="2" stroke-miterlimit="10"/>
    </g>
    <defs>
        <clipPath id="clip0">
            <path fill="#fff" transform="matrix(-1 0 0 1 623.248 129.559)" d="M0 0h579.871v199.592H0z"/>
        </clipPath>
        <clipPath id="clip1">
            <path fill="#fff" d="M0 0h603.842v363H0z"/>
        </clipPath>
        <linearGradient id="paint0_linear" x1="430.032" y1="366.993" x2="430.032" y2="62.734" gradientUnits="userSpaceOnUse">
            <stop stop-color="gray" stop-opacity=".25"/>
            <stop offset=".54" stop-color="gray" stop-opacity=".12"/>
            <stop offset="1" stop-color="gray" stop-opacity=".1"/>
        </linearGradient>
    </defs>
</svg>