<svg width="413" height="387" fill="none"
    xmlns="http://www.w3.org/2000/svg">
    <g clip-path="url(#clip0)">
        <path d="M328.94 274.959s51.094 2.647 39.193 18.762c-11.901 16.115-43.172-9.453-43.172-9.453l3.979-9.309z" fill="#FFB8B8"/>
        <path d="M234.783 121.465l10.4 2.605s6.066 18.235 10.4 34.733c4.333 16.498 12.999 65.992 12.999 65.992l67.189 47.178-8.013 17.962-89.508-35.345-19.934-78.421 16.467-54.704z" fill="#28A5EB"/>
        <path opacity=".2" d="M244.567 153.832l-3.876 81.327 8.088 24.179-23.693-17.408 19.481-88.098z" fill="#000"/>
        <path d="M258.617 298.167s11.266 30.391 12.999 51.231c1.734 20.84 3.467 37.338 3.467 37.338h-52.866l-10.4-15.63v15.63h-61.532s-17.333-56.441-10.4-63.388c6.933-6.946 72.799-36.469 72.799-36.469l45.933 11.288z" fill="#2F2E41"/>
        <path d="M359.349 385.945H53.441V387H359.35v-1.055z" fill="#3F3D56"/>
        <path d="M192.318 88.469c18.188 0 32.932-14.773 32.932-32.996 0-18.224-14.744-32.996-32.932-32.996-18.189 0-32.933 14.772-32.933 32.996 0 18.223 14.744 32.996 32.933 32.996z" fill="#FFB8B8"/>
        <path d="M167.184 69.365l-2.6 38.206 32.933 44.285 16.466-41.68s-14.733-9.551-6.066-29.523l-40.733-11.288z" fill="#FFB8B8"/>
        <path d="M263.381 305.548c0 7.818-21.666 19.973-21.666 19.973v4.341l-8.667 4.342L213.983 296l-5.197 41.675s-38.136 6.082-50.267 0c-12.136-6.077-18.201-3.471-35.534-9.548-17.333-6.078 6.934-87.702 6.934-87.702l-17.333-125.906 37.867-18.97 1.996-1.002 5.207-.96 7.982-1.478 26.679 18.068 2.148 11.289 1.321 6.948 6.929-7.818 5.234-17.245 37.235 20.721-10.398 83.356s28.595 90.308 28.595 98.12z" fill="#28A5EB"/>
        <path d="M135.985 332.467s39.866 32.128 20.8 38.206c-19.067 6.078-29.467-32.996-29.467-32.996l8.667-5.21z" fill="#FFB8B8"/>
        <path d="M121.252 116.254l-8.666-1.736s-13 6.946-13.867 20.839c-.867 13.893-12.133 111.145-12.133 111.145l36.399 98.12 29.467-11.288-28.6-92.042 21.666-79.885-24.266-45.153z" fill="#28A5EB"/>
        <path d="M196.128 142.754a3.162 3.162 0 003.159-3.165 3.162 3.162 0 00-3.159-3.165 3.162 3.162 0 00-3.159 3.165 3.162 3.162 0 003.159 3.165zM196.128 163.326a3.162 3.162 0 003.159-3.165 3.162 3.162 0 00-3.159-3.165 3.162 3.162 0 00-3.159 3.165 3.162 3.162 0 003.159 3.165zM214.03 298.903a3.163 3.163 0 003.159-3.166 3.162 3.162 0 00-3.159-3.165 3.162 3.162 0 00-3.159 3.165 3.163 3.163 0 003.159 3.166zM164.512 21.67l-6.088-2.443s12.729-14.04 30.439-12.82L183.882.914s12.176-4.884 23.244 7.936c5.819 6.74 12.551 14.661 16.748 23.585h6.52l-2.721 6.003 9.523 6.003-9.775-1.079a33.58 33.58 0 01.265 9.957 12.887 12.887 0 01-4.708 8.428s-7.55-15.658-7.55-18.1v6.105s-6.088-5.494-6.088-9.157l-3.321 4.273h-22.137l3.321-5.494-12.729 1.832 4.981-6.716-19.708 27.73s-11.285-31.393 4.765-40.55z" fill="#2F2E41"/>
        <path d="M360.349 255.084c29.079 0 52.652-23.618 52.652-52.753s-23.573-52.753-52.652-52.753-52.652 23.618-52.652 52.753 23.573 52.753 52.652 52.753z" fill="#3F3D56"/>
        <path opacity=".1" d="M360.349 247.7c25.008 0 45.281-20.312 45.281-45.368 0-25.055-20.273-45.367-45.281-45.367s-45.281 20.312-45.281 45.367c0 25.056 20.273 45.368 45.281 45.368z" fill="#000"/>
        <text fill="#FDFDFD" style="white-space:pre" font-family="Roboto" font-size="66" font-weight="bold" letter-spacing="0em">
            <tspan x="340.874" y="225.059">₽</tspan>
        </text>
        <path opacity=".2" d="M131.633 266.335l21.058 65.906-16.849-68.579-4.209 2.673z" fill="#000"/>
        <path d="M24.269 137.582H10.902a2.202 2.202 0 01-2.197-2.201v-19.252a2.197 2.197 0 012.197-2.201H24.27a2.197 2.197 0 012.197 2.201v19.252a2.201 2.201 0 01-2.197 2.201zm-13.367-22.599a1.142 1.142 0 00-1.144 1.146v19.252a1.148 1.148 0 001.144 1.146H24.27a1.142 1.142 0 001.144-1.146v-19.252a1.148 1.148 0 00-1.144-1.146H10.902zM48.684 137.582H36.613a2.848 2.848 0 01-2.845-2.851V95.853c0-.756.3-1.48.834-2.015a2.846 2.846 0 012.01-.836h12.072c.754 0 1.477.302 2.01.836.534.534.834 1.259.835 2.015v38.878c-.001.756-.301 1.481-.835 2.015a2.848 2.848 0 01-2.01.836zM36.613 94.057a1.792 1.792 0 00-1.792 1.796v38.878a1.798 1.798 0 001.792 1.796h12.07a1.793 1.793 0 001.793-1.796V95.853a1.8 1.8 0 00-1.792-1.796H36.613zM73.28 137.581H62.141a3.312 3.312 0 01-2.34-.973 3.324 3.324 0 01-.97-2.344V77.068c0-.88.35-1.723.97-2.345a3.312 3.312 0 012.34-.973H73.28c.878.001 1.72.35 2.34.973.621.622.97 1.465.971 2.345v57.196a3.324 3.324 0 01-.97 2.344 3.312 3.312 0 01-2.341.973zM62.141 74.805c-.598 0-1.172.24-1.596.663-.423.425-.661 1-.662 1.6v57.196a2.26 2.26 0 002.258 2.262H73.28a2.26 2.26 0 002.258-2.262V77.068c0-.6-.239-1.175-.662-1.6a2.258 2.258 0 00-1.596-.663H62.141z" fill="#3F3D56"/>
        <path d="M22.6 117.594H12.573v16.322H22.6v-16.322zM47.66 96.877H37.635v37.038H47.66V96.877zM72.722 77.627H62.697v56.289h10.025V77.627z" fill="#28A5EB"/>
        <path d="M380.673 76.916h-70.027a.527.527 0 01-.527-.527V5.172a.527.527 0 111.053 0v70.69h69.501a.527.527 0 010 1.054zM83.716 144.967H.526a.517.517 0 01-.372-.154.527.527 0 01-.154-.373V61.617a.528.528 0 01.899-.373.528.528 0 01.154.373v82.295h82.663a.526.526 0 01.373.901.525.525 0 01-.373.154z" fill="#3F3D56"/>
        <path d="M334.812 70.305h-13.366a2.199 2.199 0 01-2.198-2.202V48.852a2.199 2.199 0 012.198-2.202h13.366a2.197 2.197 0 012.197 2.202v19.251a2.203 2.203 0 01-2.197 2.202zm-13.366-22.6a1.15 1.15 0 00-1.145 1.146v19.252a1.15 1.15 0 001.145 1.147h13.366a1.145 1.145 0 001.144-1.147V48.852a1.149 1.149 0 00-1.144-1.146h-13.366zM362.186 70.304h-12.302a2.74 2.74 0 01-2.73-2.735v-34.87a2.74 2.74 0 01.801-1.932 2.728 2.728 0 011.929-.802h12.302a2.74 2.74 0 012.73 2.735v34.869a2.74 2.74 0 01-2.73 2.735zM349.884 31.02c-.445 0-.871.178-1.185.492a1.687 1.687 0 00-.492 1.187v34.87a1.683 1.683 0 001.677 1.68h12.302c.445 0 .871-.178 1.185-.493.314-.315.491-.742.492-1.187v-34.87a1.687 1.687 0 00-.492-1.187 1.676 1.676 0 00-1.185-.492h-12.302z" fill="#3F3D56"/>
        <path d="M332.902 50.498h-10.025V66.82h10.025V50.498zM361.046 34.346h-10.025v31.58h10.025v-31.58zM328.022 41.044a4.744 4.744 0 004.739-4.747 4.744 4.744 0 00-4.739-4.748 4.744 4.744 0 00-4.739 4.748 4.744 4.744 0 004.739 4.747zM355.926 23.107a4.744 4.744 0 004.739-4.748 4.744 4.744 0 00-4.739-4.748 4.743 4.743 0 00-4.738 4.748 4.743 4.743 0 004.738 4.748z" fill="#28A5EB"/>
    </g>
    <defs>
        <clipPath id="clip0">
            <path fill="#fff" d="M0 0h413v387H0z"/>
        </clipPath>
    </defs>
</svg>