<svg width="10" height="11" viewBox="0 0 10 11" fill="none" xmlns="http://www.w3.org/2000/svg">
<path d="M4.83158 0C4.8 0 4.76842 0 4.76842 0C4.73684 0 4.70526 0 4.70526 0C2.02105 0 0 2.02105 0 4.54737C0 5.68421 0.410526 6.72632 1.10526 7.51579C1.16842 7.61053 1.26316 7.67368 1.32632 7.76842C1.32632 7.76842 2.05263 8.49474 3.28421 9C4.48421 9.50526 4.73684 10.2947 4.76842 10.2947C4.8 10.3263 5.02105 9.50526 6.25263 9C7.48421 8.49474 8.21052 7.76842 8.21052 7.76842C8.30526 7.67368 8.36842 7.61053 8.43158 7.51579C9.12632 6.72632 9.53684 5.68421 9.53684 4.54737C9.53684 2.02105 7.51579 0 4.83158 0ZM4.83158 6.88421C4.83158 6.88421 4.70526 6.88421 4.67368 6.88421C3.34737 6.88421 2.46316 5.77895 2.46316 4.51579C2.46316 3.22105 3.34737 2.14737 4.67368 2.14737H4.86316C6.18947 2.14737 7.07368 3.22105 7.07368 4.51579C7.0421 5.77895 6.15789 6.88421 4.83158 6.88421Z" fill="#28A5EB"/>
</svg>
