<svg width="488" height="332" fill="none" xmlns="http://www.w3.org/2000/svg"><g clip-path="url(#clip0)" filter="url(#filter0_d)"><path d="M314.366 73.452c9.089 0 16.457-7.377 16.457-16.476 0-9.1-7.368-16.476-16.457-16.476-9.09 0-16.458 7.377-16.458 16.476 0 9.1 7.368 16.476 16.458 16.476z" fill="#F2F2F2"/><text fill="#BABDCA" style="white-space:pre" font-family="Roboto" font-size="18" font-weight="bold" letter-spacing="0em"><tspan x="309.147" y="63.152">£</tspan></text><path d="M377.707 172.508L96.063 0 4 150.642 285.644 323.15l92.063-150.642z" fill="#F2F2F2"/><path d="M414.472 244.971a6.036 6.036 0 006.032-6.039 6.035 6.035 0 00-6.032-6.039 6.035 6.035 0 00-6.033 6.039 6.036 6.036 0 006.033 6.039z" fill="#0E4E89"/><path d="M462.027 304.671V235.91" stroke="#3F3D56" stroke-width="2" stroke-miterlimit="10"/><path d="M462.027 245.633c5.365 0 9.713-4.353 9.713-9.724 0-5.37-4.348-9.723-9.713-9.723-5.364 0-9.713 4.353-9.713 9.723 0 5.371 4.349 9.724 9.713 9.724zM442.898 274.41c-14.03 21.539-10.186 48.935-10.186 48.935s26.591-7.527 40.621-29.067c14.029-21.539 10.185-48.934 10.185-48.934s-26.591 7.527-40.62 29.066z" fill="#3F3D56"/><path d="M432.637 323.094s-.342-.055-.97-.182a63.104 63.104 0 01-2.035-.447c-7.536-1.779-27.57-7.792-40.668-23.6-16.394-19.795-15.704-47.451-15.704-47.451s25.067 4.078 41.584 21.854a50.841 50.841 0 012.089 2.375c14.265 17.224 15.595 40.398 15.7 46.127.015.858.004 1.324.004 1.324z" fill="#28A5EB"/><path d="M422.526 274.41c14.03 21.539 10.186 48.935 10.186 48.935s-26.591-7.527-40.621-29.067c-14.03-21.539-10.185-48.934-10.185-48.934s26.59 7.527 40.62 29.066z" stroke="#3F3D56" stroke-width="2" stroke-miterlimit="10"/><path opacity=".1" d="M432.634 321.77c-.37.447-.697.829-.966 1.142-.596.68-.934 1.036-.934 1.036s-.411-.516-1.101-1.484c-3.789-5.289-15.979-24.094-15.038-45.817.05-1.139.134-2.265.25-3.379a49.838 49.838 0 012.089 2.375c14.265 17.223 15.595 40.398 15.7 46.127z" fill="#000"/><path d="M453.437 278.217c-1.109 25.69-20.158 45.731-20.158 45.731s-17.251-21.611-16.142-47.301c1.109-25.69 20.158-45.731 20.158-45.731s17.251 21.611 16.142 47.301z" fill="#28A5EB"/><path d="M433.277 323.222l4.188-91.257M33.557 323.32h435.101" stroke="#3F3D56" stroke-width="2" stroke-miterlimit="10"/><path d="M125.968 212.03c12.137 0 21.975-9.85 21.975-22 0-12.151-9.838-22.001-21.975-22.001-12.137 0-21.976 9.85-21.976 22.001 0 12.15 9.839 22 21.976 22zM88.614 263.807c12.137 0 21.976-9.85 21.976-22 0-12.151-9.839-22-21.976-22-12.136 0-21.975 9.849-21.975 22 0 12.15 9.839 22 21.975 22zM42.642 305.157c12.136 0 21.975-9.85 21.975-22.001 0-12.15-9.839-22-21.975-22-12.137 0-21.976 9.85-21.976 22 0 12.151 9.839 22.001 21.976 22.001z" fill="#28A5EB"/><path d="M42.623 322.945v-39.908" stroke="#3F3D56" stroke-width="2" stroke-miterlimit="10"/><path d="M42.621 288.68a5.64 5.64 0 005.638-5.644 5.64 5.64 0 00-5.638-5.643 5.64 5.64 0 00-5.637 5.643 5.64 5.64 0 005.637 5.644zM42.623 307.632s-.805-17.34-17.314-15.324l17.314 15.324z" fill="#3F3D56"/><path d="M125.98 323.224V190.111" stroke="#3F3D56" stroke-width="2" stroke-miterlimit="10"/><path d="M125.981 195.691a5.64 5.64 0 005.637-5.643 5.64 5.64 0 00-5.637-5.644 5.64 5.64 0 00-5.637 5.644 5.64 5.64 0 005.637 5.643zM108.666 292a5.64 5.64 0 005.638-5.644 5.64 5.64 0 00-5.638-5.643 5.64 5.64 0 00-5.637 5.643 5.64 5.64 0 005.637 5.644zM125.98 218.874s-.805-17.34-17.314-15.324l17.314 15.324zM125.98 268.032s-.805-17.34-17.314-15.324l17.314 15.324z" fill="#3F3D56"/><path d="M125.98 321.672s3.624-33.704-17.314-35.317" stroke="#3F3D56" stroke-width="2" stroke-miterlimit="10"/><path d="M143.297 292a5.64 5.64 0 005.637-5.644 5.64 5.64 0 00-5.637-5.643 5.64 5.64 0 00-5.637 5.643 5.64 5.64 0 005.637 5.644z" fill="#3F3D56"/><path d="M125.984 321.672s-3.624-33.704 17.314-35.317" stroke="#3F3D56" stroke-width="2" stroke-miterlimit="10"/><path d="M143.641 239.06a5.64 5.64 0 005.637-5.643 5.64 5.64 0 00-5.637-5.644 5.64 5.64 0 00-5.637 5.644 5.64 5.64 0 005.637 5.643z" fill="#3F3D56"/><path d="M126.328 266.937s-3.624-31.907 17.314-33.519M88.635 323.037v-81.254" stroke="#3F3D56" stroke-width="2" stroke-miterlimit="10"/><path d="M88.635 247.426a5.64 5.64 0 005.637-5.644 5.64 5.64 0 00-5.637-5.643 5.64 5.64 0 00-5.637 5.643 5.64 5.64 0 005.637 5.644zM88.635 264.767s-.806-17.34-17.315-15.325l17.315 15.325z" fill="#3F3D56"/><path d="M88.635 321.485s3.623-33.345-17.315-34.958" stroke="#3F3D56" stroke-width="2" stroke-miterlimit="10"/><path d="M71.32 292.172a5.64 5.64 0 005.638-5.644 5.64 5.64 0 00-5.637-5.643 5.64 5.64 0 00-5.637 5.643 5.64 5.64 0 005.637 5.644z" fill="#3F3D56"/><path d="M398.197 199.594c5.112 0 9.257-4.149 9.257-9.268 0-5.118-4.145-9.267-9.257-9.267-5.113 0-9.258 4.149-9.258 9.267 0 5.119 4.145 9.268 9.258 9.268z" fill="#F2F2F2"/><text fill="#BABDCA" style="white-space:pre" font-family="Roboto" font-size="12" font-weight="bold" letter-spacing="0em"><tspan x="394.932" y="194.602">£</tspan></text><path d="M37.162 232.029c5.112 0 9.257-4.149 9.257-9.267 0-5.119-4.145-9.268-9.257-9.268-5.113 0-9.258 4.149-9.258 9.268 0 5.118 4.145 9.267 9.258 9.267z" fill="#F2F2F2"/><text fill="#BABDCA" style="white-space:pre" font-family="Roboto" font-size="12" font-weight="bold" letter-spacing="0em"><tspan x="33.432" y="226.602">£</tspan></text><text fill="#0E4E89" style="white-space:pre" font-family="Roboto" font-size="310" font-weight="900" letter-spacing="0em"><tspan x="165" y="324.457">£</tspan></text><path opacity=".1" d="M289.305 305.142c-11.808 5.375-27.016 4.994-27.016 4.994h-16.457v-3.146c6.706-1.874 15.979-3.032 26.229-3.032a120 120 0 0117.244 1.184z" fill="#000"/><path opacity=".1" d="M309.089 314.254c0 5.689-16.58 10.297-37.029 10.297-20.448 0-37.029-4.608-37.029-10.297 0-2.837 4.125-5.406 10.8-7.265v3.146h16.458s15.207.381 27.016-4.994c11.761 1.719 19.784 5.153 19.784 9.113z" fill="#000"/><path d="M276.79 250.139h-15.755v15.801h15.755v-15.801z" fill="#2F2E41"/><path d="M266.894 261.312s1.304 4.57-.978 4.896a8.906 8.906 0 00-3.912 1.632l4.238 5.549h7.825l4.89-4.896s-6.52-4.896-5.216-7.834c1.304-2.937-6.847.653-6.847.653z" fill="#FFB9B9"/><path opacity=".1" d="M266.894 261.312s1.304 4.57-.978 4.896a8.906 8.906 0 00-3.912 1.632l4.238 5.549h7.825l4.89-4.896s-6.52-4.896-5.216-7.834c1.304-2.937-6.847.653-6.847.653z" fill="#000"/><path d="M268.85 318.105l7.499 2.611 5.215.326-.326-4.569-10.758-3.186-1.63 4.818z" fill="#FFB9B9"/><path d="M278.467 317.125s0 4.569.652 4.569 9.455-.979 12.063 0c2.608.98 6.52-2.611 4.564-4.569-1.956-1.958-5.147-4.896-7.138-4.243-1.991.653-10.141 2.285-10.141 2.285v1.958zM254.505 312.883s-3.912 7.833-1.304 8.486c2.608.653 5.543-.326 5.869-.653.326-.326 4.89-1.632 5.542-.979.652.653.652-2.611.652-2.611l-10.759-4.243z" fill="#2F2E41"/><path d="M257.765 302.111s-6.194 8.486-1.63 10.771 26.408 2.285 28.038 0c1.63-2.285 2.282-9.465 0-10.118-2.282-.653-26.408-.653-26.408-.653z" fill="#2F2E41"/><path opacity=".2" d="M257.765 302.111s-6.194 8.486-1.63 10.771 26.408 2.285 28.038 0c1.63-2.285 2.282-9.465 0-10.118-2.282-.653-26.408-.653-26.408-.653z" fill="#000"/><path d="M269.503 263.596c4.141 0 7.498-3.361 7.498-7.507 0-4.146-3.357-7.507-7.498-7.507-4.142 0-7.499 3.361-7.499 7.507 0 4.146 3.357 7.507 7.499 7.507z" fill="#FFB9B9"/><path d="M257.766 267.841l6.52-1.306s1.63 5.222 6.847 4.243c5.216-.979 6.52-4.243 6.52-4.243s3.913 1.632 4.239 1.632c.326 0 4.564 1.632 4.564 2.611 0 .979-4.89 10.771-4.89 10.771l.652 17.625-24.126-.653 1.63-17.298-1.956-13.382z" fill="#28A5EB"/><path d="M254.178 276.326s-1.956 17.299-.652 18.605c1.305 1.305 6.521 4.895 6.521 4.895v-3.916l-2.608-4.896 2.608-11.424-5.869-3.264zM287.922 275.836s-1.141 17.788-1.141 18.441c0 .653-2.934 2.938-3.913 2.938-.978 0-1.63-1.632-1.63-1.632l2.282-2.611-1.63-13.383 6.032-3.753z" fill="#FFB9B9"/><path d="M284.826 300.806s14.671-8.16 14.997 0c.326 8.16-7.499 11.424-7.499 11.424s-20.213 6.068-21.028 3.85c-.816-2.218-2.446-5.808-1.142-6.135 1.305-.326 2.935-.979 3.587-.326.652.653 8.802-4.896 8.802-4.896l2.283-3.917z" fill="#2F2E41"/><path opacity=".2" d="M291.672 299.826s-2.935 1.306-3.913 2.285c-.978.979-5.216 2.611-5.216 2.611" stroke="#000" stroke-width="2" stroke-miterlimit="10"/><path d="M259.721 268.493l-1.956-.653s-7.173 7.507-4.891 9.465c2.282 1.959 3.586 2.611 4.238 3.264.653.653 3.913.979 3.913.979l-1.304-13.055zM283.521 270.125l2.935.653s2.282 4.896 2.934 5.548c.652.653-.978.327-1.956 1.632-.978 1.306-1.956 3.591-3.913 3.591-1.956 0-4.564-3.264-4.564-3.264l4.564-8.16z" fill="#28A5EB"/><path d="M258.417 303.744s-12.389-8.813-16.628-2.285c-4.238 6.528 18.258 15.34 21.518 16.646a200.634 200.634 0 016.195 2.611s2.934-7.181 2.934-8.486c0-1.306-2.282-1.306-2.934-1.306-.652 0-3.587-.653-4.239-1.632-.652-.979-6.846-5.548-6.846-5.548z" fill="#2F2E41"/><path opacity=".2" d="M251.57 301.459s3.261 2.611 6.195 3.264c2.934.653 3.912 2.285 3.912 2.285" stroke="#000" stroke-width="2" stroke-miterlimit="10"/><path d="M256.168 289.186l.261 13.82a1.728 1.728 0 001.747 1.697l25.689-.289a1.728 1.728 0 001.705-1.63l.78-13.531a1.736 1.736 0 00-.468-1.287 1.73 1.73 0 00-1.257-.542h-26.729a1.727 1.727 0 00-1.728 1.762z" fill="#28A5EB"/><path d="M253.197 267.922c.7-1.545 1.64-2.996 2.088-4.633.537-1.961.328-4.037.264-6.069a19.105 19.105 0 01.454-5.357 9.214 9.214 0 012.645-4.609c3.417-3.054 9.67-3.273 13.842-2.002 1.644.501 3.396 1.456 3.804 3.128.062.252.089.512.158.763.342 1.245 1.614 2.032 2.073 3.239.593 1.56-.322 3.257-.442 4.923-.139 1.944.815 3.781 1.757 5.488.559 1.014 1.141 2.095 1.085 3.253a4.108 4.108 0 01-.562 1.793 6.829 6.829 0 01-5.737 3.292 3.586 3.586 0 01-2.149-.508c-1.018-.701-1.317-2.115-1.104-3.334.212-1.219.83-2.322 1.314-3.46.149-.35.283-.705.407-1.064a7.302 7.302 0 003.325-8.803 7.297 7.297 0 00-8.101-4.775 7.292 7.292 0 00-4.348 2.481 7.309 7.309 0 00-.024 9.411 7.292 7.292 0 004.335 2.503 9.913 9.913 0 01-.478 5.501 20.81 20.81 0 01-2.308 4.028 5.556 5.556 0 01-1.47 1.647 5.191 5.191 0 01-1.252.536c-1.842.592-3.781 1.07-5.697.803s-3.813-1.424-4.466-3.247c-.572-1.597-.113-3.382.587-4.928z" fill="#2F2E41"/><path d="M269.138 256.388c4.395 0 7.958-2.021 7.958-4.514 0-2.493-3.563-4.515-7.958-4.515s-7.958 2.022-7.958 4.515 3.563 4.514 7.958 4.514z" fill="#2F2E41"/></g><defs><clipPath id="clip0"><path fill="#fff" transform="translate(4)" d="M0 0h480v324H0z"/></clipPath><filter id="filter0_d" x="0" y="0" width="488" height="332" filterUnits="userSpaceOnUse" color-interpolation-filters="sRGB"><feFlood flood-opacity="0" result="BackgroundImageFix"/><feColorMatrix in="SourceAlpha" values="0 0 0 0 0 0 0 0 0 0 0 0 0 0 0 0 0 0 127 0"/><feOffset dy="4"/><feGaussianBlur stdDeviation="2"/><feColorMatrix values="0 0 0 0 0 0 0 0 0 0 0 0 0 0 0 0 0 0 0.25 0"/><feBlend in2="BackgroundImageFix" result="effect1_dropShadow"/><feBlend in="SourceGraphic" in2="effect1_dropShadow" result="shape"/></filter></defs></svg>