<svg width="24" height="24" viewBox="0 0 24 24" fill="none" xmlns="http://www.w3.org/2000/svg">
<path fill-rule="evenodd" clip-rule="evenodd" d="M3.62412 0.00195312H20.3759C22.3774 0.00195312 24 1.62453 24 3.62607V20.3754C24 22.377 22.3774 23.9996 20.3759 23.9996H3.62412C1.62257 23.9996 0 22.377 0 20.3754V3.62607C0 1.62453 1.62257 0.00195312 3.62412 0.00195312ZM7.67913 20.1419V9.23582H4.05417V20.1419H7.67913ZM5.86713 7.7459C7.13121 7.7459 7.91805 6.90843 7.91805 5.8619C7.89449 4.79175 7.13126 3.97754 5.89113 3.97754C4.65117 3.97754 3.84033 4.79176 3.84033 5.8619C3.84033 6.90849 4.62697 7.7459 5.84349 7.7459H5.86705H5.86713ZM13.3105 20.1426H9.68555L9.68563 20.1424C9.68563 20.1424 9.7332 10.2597 9.68563 9.23631H13.3106V10.7805C13.7924 10.0374 14.6546 8.98047 16.5775 8.98047C18.9625 8.98047 20.7509 10.5391 20.7509 13.8891V20.1425H17.1261V14.308C17.1261 12.8419 16.6014 11.8417 15.2897 11.8417C14.2883 11.8417 13.6918 12.5163 13.4298 13.1675C13.3341 13.4005 13.3105 13.7261 13.3105 14.0521V20.1426Z" fill="#3a3a3a"/>
</svg>
