<svg width="277" height="36" viewBox="0 0 277 36" fill="none" xmlns="http://www.w3.org/2000/svg">
<g clip-path="url(#clip0)">
<path d="M0 0.553711H7.10769V19.846H19.3846V26.0306H0V0.553711Z" fill="#28A5EB"/>
<path d="M25.6616 0.553711H32.7693V26.0306H25.6616V0.553711Z" fill="#28A5EB"/>
<path d="M75.231 14.8614V0.553711H82.431V14.7691C82.431 18.4614 84.2771 20.2153 87.1386 20.2153C90.0002 20.2153 91.8463 18.5537 91.8463 14.9537V0.553711H99.0463V14.6768C99.0463 22.8922 94.3386 26.4922 87.1386 26.4922C79.9387 26.4922 75.231 22.7999 75.231 14.8614Z" fill="#28A5EB"/>
<path d="M107.077 0.553711H114.185V26.0306H107.077V0.553711Z" fill="#28A5EB"/>
<path d="M123.046 0.553711H132.923C142.062 0.553711 147.323 5.81525 147.323 13.1999C147.323 20.5845 141.969 26.0306 132.831 26.0306H123.139V0.553711H123.046ZM133.016 19.7537C137.262 19.7537 140.031 17.446 140.031 13.1999C140.031 9.13833 137.262 6.64602 133.016 6.64602H130.154V19.6614H133.016V19.7537Z" fill="#28A5EB"/>
<path d="M153.323 0.553733H156.462L163.754 21.7845L170.769 0.461426H173.169L180.185 21.7845L187.477 0.553733H190.523L181.385 26.2153H178.985L171.877 5.53835L164.862 26.2153H162.462L153.323 0.553733Z" fill="#28A5EB"/>
<path d="M204.554 0.369141H207.231L218.861 26.0307H215.723L212.769 19.2922H198.923L195.877 26.0307H192.923L204.554 0.369141ZM211.661 16.7076L205.846 3.69222L200.031 16.7076H211.661Z" fill="#28A5EB"/>
<path d="M224.677 13.2923C224.677 6.2769 229.846 0.0922852 237.415 0.0922852C241.754 0.0922852 244.338 1.29229 246.923 3.50767L245.077 5.72305C243.138 3.96921 240.923 2.76921 237.323 2.76921C231.692 2.76921 227.631 7.56921 227.631 13.2923C227.631 19.3846 231.508 23.9077 237.692 23.9077C240.646 23.9077 243.323 22.8 245.077 21.3231V14.9538H237.323V12.3692H247.846V22.5231C245.446 24.6461 241.938 26.4 237.6 26.4C229.661 26.4923 224.677 20.5846 224.677 13.2923Z" fill="#28A5EB"/>
<path d="M258.277 0.553711H276.738V3.13833H261.231V11.8152H275.077V14.3999H261.231V23.3537H276.923V25.9383H258.277V0.553711Z" fill="#28A5EB"/>
<path d="M54.9229 0C54.8306 0 54.7383 0 54.7383 0C54.646 0 54.5536 0 54.5536 0C46.7075 0 40.7998 5.90769 40.7998 13.2923C40.7998 16.6154 41.9998 19.6615 44.0306 21.9692C44.2152 22.2462 44.4921 22.4308 44.6767 22.7077C44.6767 22.7077 46.7998 24.8308 50.3998 26.3077C53.9075 27.7846 54.646 30.0923 54.7383 30.0923C54.8306 30.1846 55.4767 27.7846 59.0767 26.3077C62.6767 24.8308 64.7998 22.7077 64.7998 22.7077C65.0767 22.4308 65.2613 22.2462 65.446 21.9692C67.4767 19.6615 68.6767 16.6154 68.6767 13.2923C68.6767 5.90769 62.769 0 54.9229 0ZM54.9229 20.1231C54.9229 20.1231 54.5537 20.1231 54.4613 20.1231C50.5844 20.1231 47.9998 16.8923 47.9998 13.2C47.9998 9.41539 50.5844 6.27692 54.4613 6.27692H55.0152C58.8921 6.27692 61.4767 9.41539 61.4767 13.2C61.3844 16.8923 58.7998 20.1231 54.9229 20.1231Z" fill="#28A5EB"/>
<path d="M54.7386 35.0769C55.5543 35.0769 56.2156 s34.4157 56.2156 33.6C56.2156 32.7843 55.5543 32.123 54.7386 32.123C53.923 32.123 53.2617 32.7843 53.2617 33.6C53.2617 34.4157 53.923 35.0769 54.7386 35.0769Z" fill="#28A5EB"/>
</g>
<defs>
<clipPath id="clip0">
<rect width="276.923" height="36" fill="white"/>
</clipPath>
</defs>
</svg>
