<svg width="64" height="64" viewBox="0 0 64 64" fill="none" xmlns="http://www.w3.org/2000/svg">
<rect width="64" height="64" fill="white"/>
<circle cx="32" cy="32" r="32" fill="#0E4E89"/>
<mask id="mask0" mask-type="alpha" maskUnits="userSpaceOnUse" x="0" y="0" width="64" height="64">
<circle cx="32" cy="32" r="32" fill="#FDFDFD"/>
</mask>
<g mask="url(#mask0)">
<path d="M29.9475 45.7752L29.9455 45.7771C29.543 46.1797 29.0639 46.36 28.4968 46.36C27.9298 46.36 27.4507 46.1797 27.0482 45.7771C26.2937 45.0226 26.2934 43.7028 27.0474 42.9479C27.0476 42.9476 27.0479 42.9474 27.0482 42.9471L37.3532 32.7094L38.065 32.0023L37.3555 31.2929L27.1155 21.0529C26.3608 20.2982 26.3608 18.9776 27.1155 18.2229C27.8703 17.4682 29.1908 17.4682 29.9455 18.2229L29.9475 18.2248L42.3413 30.5513C42.3415 30.5515 42.3416 30.5516 42.3418 30.5518C42.6885 30.8988 42.9242 31.4507 42.9242 32C42.9242 32.5103 42.7166 33.0154 42.3199 33.47L29.9475 45.7752ZM32 -1C13.7972 -1 -1 13.7972 -1 32C-1 50.2028 13.7972 65 32 65C50.2028 65 65 50.2028 65 32C65 13.7972 50.2028 -1 32 -1Z" fill="#FDFDFD" stroke="#FDFDFD" stroke-width="2"/>
</g>
</svg>
