<svg width="32" height="32" viewBox="0 0 32 32" fill="none" xmlns="http://www.w3.org/2000/svg">
<circle cx="16" cy="16" r="15" fill="#0d4d89"/>
<path d="M16 -6.99382e-07C7.17474 -3.13618e-07 -1.08515e-06 7.17474 -6.99382e-07 16C-3.13618e-07 24.8253 7.17474 32 16 32C24.8253 32 32 24.8253 32 16C32 7.17473 24.8253 -1.08515e-06 16 -6.99382e-07ZM21.5242 17.0779L15.3263 23.2421C15.0232 23.5453 14.6526 23.68 14.2484 23.68C13.8442 23.68 13.4737 23.5453 13.1705 23.2421C12.5979 22.6695 12.5979 21.6926 13.1705 21.12L18.3242 16L13.2042 10.88C12.6316 10.3074 12.6316 9.33052 13.2042 8.75789C13.7768 8.18526 14.7537 8.18526 15.3263 8.75789L21.5242 14.9221C21.7937 15.1916 21.9621 15.5958 21.9621 16C21.9621 16.4042 21.7937 16.7747 21.5242 17.0779Z" fill="#F2F9FD"/>
</svg>
