<svg width="23" height="19" viewBox="0 0 23 19" fill="none" xmlns="http://www.w3.org/2000/svg">
<path d="M21.856 0.897749C21.455 1.9972 20.8535 2.7968 19.9512 3.3965C20.7532 3.29655 21.6555 3.09664 22.4576 2.79679C22.3573 2.89674 22.2571 2.9967 22.2571 3.09665C22.1568 3.29655 22.0566 3.29654 21.9563 3.49644C21.455 3.99619 20.8534 4.49594 20.3521 4.99569C20.2519 5.09564 20.1517 5.19559 20.1517 5.29554C20.1517 10.0931 18.2468 13.8912 14.3367 16.5899C12.6324 17.7893 10.8277 18.389 8.8226 18.6888C6.91772 18.8887 5.11309 18.8887 3.30847 18.289C2.10538 17.9892 1.00257 17.4894 0 16.7898C1.20308 16.8897 2.40617 16.7898 3.50899 16.4899C4.61182 16.1901 5.71466 15.6903 6.71723 14.8907C4.61183 14.6908 3.20825 13.6913 2.40619 11.6923C3.10799 11.7923 3.80976 11.7923 4.51156 11.5924C3.10797 11.2925 2.10542 10.4929 1.40362 9.29354C1.00259 8.59389 0.802043 7.89424 0.802043 6.99469C1.40358 7.29454 2.10542 7.49444 2.90748 7.49444C1.90491 6.69484 1.20308 5.7953 1.00257 4.69585C0.802056 3.5964 0.902312 2.397 1.50385 1.3975C4.01028 4.396 7.11824 5.99519 11.0283 6.29504C11.0283 5.99519 10.928 5.79529 10.928 5.49544C10.8278 3.59639 11.6298 2.1971 13.2339 1.1976C14.9383 0.098153 17.2442 0.397994 18.7481 1.79729C18.9486 1.99719 19.0488 1.99719 19.2493 1.99719C20.0514 1.79729 20.9537 1.49745 21.6555 1.09765C21.7558 0.997696 21.7557 0.997699 21.856 0.897749Z" fill="#3a3a3a"/>
</svg>
